<?xml version="1.0" encoding="UTF-8" standalone="no"?>
<!DOCTYPE svg PUBLIC "-//W3C//DTD SVG 1.1//EN"
 "http://www.w3.org/Graphics/SVG/1.1/DTD/svg11.dtd">
<!-- Generated by graphviz version 2.42.4 (0)
 -->
<!-- Title: G Pages: 1 -->
<svg width="547pt" height="892pt"
 viewBox="0.00 0.00 547.20 892.20" xmlns="http://www.w3.org/2000/svg" xmlns:xlink="http://www.w3.org/1999/xlink">
<g id="graph0" class="graph" transform="scale(1 1) rotate(0) translate(21.6 870.6)">
<title>G</title>
<polygon fill="white" stroke="transparent" points="-21.6,21.6 -21.6,-870.6 525.6,-870.6 525.6,21.6 -21.6,21.6"/>
<!-- upload -->
<g id="node1" class="node">
<title>upload</title>
<path fill="#f8fafc" stroke="#475569" d="M434,-849C434,-849 348,-849 348,-849 342,-849 336,-843 336,-837 336,-837 336,-825 336,-825 336,-819 342,-813 348,-813 348,-813 434,-813 434,-813 440,-813 446,-819 446,-825 446,-825 446,-837 446,-837 446,-843 440,-849 434,-849"/>
<text text-anchor="middle" x="391" y="-834.2" font-family="Helvetica,sans-Serif" font-size="11.00">1. Upload</text>
<text text-anchor="middle" x="391" y="-822.2" font-family="Helvetica,sans-Serif" font-size="11.00">PDF / PNG / JPEG</text>
</g>
<!-- validate -->
<g id="node2" class="node">
<title>validate</title>
<path fill="#f8fafc" stroke="#475569" d="M463,-758C463,-758 319,-758 319,-758 313,-758 307,-752 307,-746 307,-746 307,-734 307,-734 307,-728 313,-722 319,-722 319,-722 463,-722 463,-722 469,-722 475,-728 475,-734 475,-734 475,-746 475,-746 475,-752 469,-758 463,-758"/>
<text text-anchor="middle" x="391" y="-743.2" font-family="Helvetica,sans-Serif" font-size="11.00">2. File Validation</text>
<text text-anchor="middle" x="391" y="-731.2" font-family="Helvetica,sans-Serif" font-size="11.00">size • signature • filename</text>
</g>
<!-- upload&#45;&gt;validate -->
<g id="edge1" class="edge">
<title>upload&#45;&gt;validate</title>
<path fill="none" stroke="#64748b" d="M391,-812.84C391,-799.3 391,-780.24 391,-765.15"/>
<polygon fill="#64748b" stroke="#64748b" points="393.45,-765.11 391,-758.11 388.55,-765.11 393.45,-765.11"/>
</g>
<!-- store -->
<g id="node3" class="node">
<title>store</title>
<path fill="#f8fafc" stroke="#475569" d="M447,-667C447,-667 335,-667 335,-667 329,-667 323,-661 323,-655 323,-655 323,-643 323,-643 323,-637 329,-631 335,-631 335,-631 447,-631 447,-631 453,-631 459,-637 459,-643 459,-643 459,-655 459,-655 459,-661 453,-667 447,-667"/>
<text text-anchor="middle" x="391" y="-652.2" font-family="Helvetica,sans-Serif" font-size="11.00">3. Document Storage</text>
<text text-anchor="middle" x="391" y="-640.2" font-family="Helvetica,sans-Serif" font-size="11.00">UUID + metadata</text>
</g>
<!-- validate&#45;&gt;store -->
<g id="edge2" class="edge">
<title>validate&#45;&gt;store</title>
<path fill="none" stroke="#64748b" d="M391,-721.84C391,-708.3 391,-689.24 391,-674.15"/>
<polygon fill="#64748b" stroke="#64748b" points="393.45,-674.11 391,-667.11 388.55,-674.11 393.45,-674.11"/>
</g>
<!-- ai -->
<g id="node4" class="node">
<title>ai</title>
<path fill="#f8fafc" stroke="#475569" d="M383,-576C383,-576 269,-576 269,-576 263,-576 257,-570 257,-564 257,-564 257,-552 257,-552 257,-546 263,-540 269,-540 269,-540 383,-540 383,-540 389,-540 395,-546 395,-552 395,-552 395,-564 395,-564 395,-570 389,-576 383,-576"/>
<text text-anchor="middle" x="326" y="-561.2" font-family="Helvetica,sans-Serif" font-size="11.00">4. AI Extraction</text>
<text text-anchor="middle" x="326" y="-549.2" font-family="Helvetica,sans-Serif" font-size="11.00">strict Pydantic output</text>
</g>
<!-- store&#45;&gt;ai -->
<g id="edge3" class="edge">
<title>store&#45;&gt;ai</title>
<path fill="none" stroke="#64748b" d="M378.47,-630.84C368.31,-616.93 353.89,-597.19 342.74,-581.93"/>
<polygon fill="#64748b" stroke="#64748b" points="344.6,-580.32 338.49,-576.11 340.64,-583.21 344.6,-580.32"/>
</g>
<!-- db -->
<g id="node10" class="node">
<title>db</title>
<path fill="#f8fafc" stroke="#475569" d="M430.5,-60C430.5,-63.31 372.01,-66 300,-66 227.99,-66 169.5,-63.31 169.5,-60 169.5,-60 169.5,-6 169.5,-6 169.5,-2.69 227.99,0 300,0 372.01,0 430.5,-2.69 430.5,-6 430.5,-6 430.5,-60 430.5,-60"/>
<path fill="none" stroke="#475569" d="M430.5,-60C430.5,-56.69 372.01,-54 300,-54 227.99,-54 169.5,-56.69 169.5,-60"/>
<text text-anchor="middle" x="300" y="-42.2" font-family="Helvetica,sans-Serif" font-size="11.00">PostgreSQL (prod) • SQLite (dev/test)</text>
<text text-anchor="middle" x="300" y="-30.2" font-family="Helvetica,sans-Serif" font-size="11.00">SQLAlchemy + Alembic</text>
<text text-anchor="middle" x="300" y="-18.2" font-family="Helvetica,sans-Serif" font-size="11.00">Document • Extraction • Review • LineItem</text>
</g>
<!-- store&#45;&gt;db -->
<g id="edge5" class="edge">
<title>store&#45;&gt;db</title>
<path fill="none" stroke="#64748b" d="M419.11,-626.09C436.68,-609.74 456,-585.7 456,-559 456,-559 456,-559 456,-148 456,-112.31 429.05,-86.59 397.55,-68.72"/>
<polygon fill="#64748b" stroke="#64748b" points="417.31,-624.41 413.73,-630.91 420.58,-628.06 417.31,-624.41"/>
<polygon fill="#64748b" stroke="#64748b" points="398.52,-66.46 391.2,-65.25 396.17,-70.76 398.52,-66.46"/>
<text text-anchor="middle" x="480" y="-363.5" font-family="Helvetica,sans-Serif" font-size="10.00">metadata</text>
</g>
<!-- rules -->
<g id="node5" class="node">
<title>rules</title>
<path fill="#f8fafc" stroke="#475569" d="M282,-485C282,-485 50,-485 50,-485 44,-485 38,-479 38,-473 38,-473 38,-461 38,-461 38,-455 44,-449 50,-449 50,-449 282,-449 282,-449 288,-449 294,-455 294,-461 294,-461 294,-473 294,-473 294,-479 288,-485 282,-485"/>
<text text-anchor="middle" x="166" y="-470.2" font-family="Helvetica,sans-Serif" font-size="11.00">5. Business Validation</text>
<text text-anchor="middle" x="166" y="-458.2" font-family="Helvetica,sans-Serif" font-size="11.00">arithmetic • dates • currency • confidence</text>
</g>
<!-- ai&#45;&gt;rules -->
<g id="edge4" class="edge">
<title>ai&#45;&gt;rules</title>
<path fill="none" stroke="#64748b" d="M295.15,-539.84C268.81,-525.19 230.86,-504.08 202.92,-488.53"/>
<polygon fill="#64748b" stroke="#64748b" points="204.06,-486.37 196.75,-485.11 201.68,-490.65 204.06,-486.37"/>
</g>
<!-- ai&#45;&gt;db -->
<g id="edge6" class="edge">
<title>ai&#45;&gt;db</title>
<path fill="none" stroke="#64748b" d="M335.18,-539.81C343.67,-522.27 355,-494 355,-468 355,-468 355,-468 355,-148 355,-121 342.33,-93.66 329.15,-72.52"/>
<polygon fill="#64748b" stroke="#64748b" points="331.09,-71.01 325.25,-66.45 326.97,-73.66 331.09,-71.01"/>
<text text-anchor="middle" x="379.5" y="-300.5" font-family="Helvetica,sans-Serif" font-size="10.00">candidate</text>
</g>
<!-- pass -->
<g id="node6" class="node">
<title>pass</title>
<path fill="#ecfdf5" stroke="#059669" d="M58,-321C58,-321 12,-321 12,-321 6,-321 0,-315 0,-309 0,-309 0,-297 0,-297 0,-291 6,-285 12,-285 12,-285 58,-285 58,-285 64,-285 70,-291 70,-297 70,-297 70,-309 70,-309 70,-315 64,-321 58,-321"/>
<text text-anchor="middle" x="35" y="-300.2" font-family="Helvetica,sans-Serif" font-size="11.00">Validated</text>
</g>
<!-- rules&#45;&gt;pass -->
<g id="edge7" class="edge">
<title>rules&#45;&gt;pass</title>
<path fill="none" stroke="#64748b" d="M147.72,-448.98C131,-432.99 106.07,-407.99 87,-384 72.62,-365.91 58.48,-343.78 48.58,-327.39"/>
<polygon fill="#64748b" stroke="#64748b" points="50.56,-325.94 44.87,-321.19 46.36,-328.45 50.56,-325.94"/>
<text text-anchor="middle" x="132.5" y="-414" font-family="Helvetica,sans-Serif" font-size="10.00">PASS</text>
</g>
<!-- review -->
<g id="node7" class="node">
<title>review</title>
<path fill="#fff7ed" stroke="#ea580c" d="M236.5,-384C236.5,-384 119.5,-384 119.5,-384 113.5,-384 107.5,-378 107.5,-372 107.5,-372 107.5,-360 107.5,-360 107.5,-354 113.5,-348 119.5,-348 119.5,-348 236.5,-348 236.5,-348 242.5,-348 248.5,-354 248.5,-360 248.5,-360 248.5,-372 248.5,-372 248.5,-378 242.5,-384 236.5,-384"/>
<text text-anchor="middle" x="178" y="-363.2" font-family="Helvetica,sans-Serif" font-size="11.00">Human Review Queue</text>
</g>
<!-- rules&#45;&gt;review -->
<g id="edge8" class="edge">
<title>rules&#45;&gt;review</title>
<path fill="none" stroke="#64748b" d="M168.09,-448.76C170.02,-432.86 172.9,-409.09 175.06,-391.28"/>
<polygon fill="#64748b" stroke="#64748b" points="177.52,-391.29 175.93,-384.05 172.66,-390.7 177.52,-391.29"/>
<text text-anchor="middle" x="192.5" y="-414" font-family="Helvetica,sans-Serif" font-size="10.00">REVIEW</text>
</g>
<!-- result -->
<g id="node9" class="node">
<title>result</title>
<path fill="#f5f3ff" stroke="#7c3aed" d="M153.5,-167C153.5,-167 34.5,-167 34.5,-167 28.5,-167 22.5,-161 22.5,-155 22.5,-155 22.5,-143 22.5,-143 22.5,-137 28.5,-131 34.5,-131 34.5,-131 153.5,-131 153.5,-131 159.5,-131 165.5,-137 165.5,-143 165.5,-143 165.5,-155 165.5,-155 165.5,-161 159.5,-167 153.5,-167"/>
<text text-anchor="middle" x="94" y="-152.2" font-family="Helvetica,sans-Serif" font-size="11.00">6. Authoritative Result</text>
<text text-anchor="middle" x="94" y="-140.2" font-family="Helvetica,sans-Serif" font-size="11.00">API • JSON • CSV</text>
</g>
<!-- pass&#45;&gt;result -->
<g id="edge11" class="edge">
<title>pass&#45;&gt;result</title>
<path fill="none" stroke="#64748b" d="M41.65,-284.86C52.19,-257.72 72.74,-204.78 84.72,-173.91"/>
<polygon fill="#64748b" stroke="#64748b" points="87.03,-174.72 87.28,-167.31 82.46,-172.95 87.03,-174.72"/>
</g>
<!-- corrected -->
<g id="node8" class="node">
<title>corrected</title>
<path fill="#eff6ff" stroke="#2563eb" d="M282,-258C282,-258 106,-258 106,-258 100,-258 94,-252 94,-246 94,-246 94,-234 94,-234 94,-228 100,-222 106,-222 106,-222 282,-222 282,-222 288,-222 294,-228 294,-234 294,-234 294,-246 294,-246 294,-252 288,-258 282,-258"/>
<text text-anchor="middle" x="194" y="-243.2" font-family="Helvetica,sans-Serif" font-size="11.00">Reviewed</text>
<text text-anchor="middle" x="194" y="-231.2" font-family="Helvetica,sans-Serif" font-size="11.00">correction overlay + provenance</text>
</g>
<!-- review&#45;&gt;corrected -->
<g id="edge9" class="edge">
<title>review&#45;&gt;corrected</title>
<path fill="none" stroke="#64748b" d="M180.22,-347.76C182.99,-326.29 187.74,-289.49 190.88,-265.2"/>
<polygon fill="#64748b" stroke="#64748b" points="193.33,-265.35 191.79,-258.1 188.47,-264.72 193.33,-265.35"/>
<text text-anchor="middle" x="227" y="-300.5" font-family="Helvetica,sans-Serif" font-size="10.00">confirm / correct</text>
</g>
<!-- corrected&#45;&gt;result -->
<g id="edge12" class="edge">
<title>corrected&#45;&gt;result</title>
<path fill="none" stroke="#64748b" d="M174.72,-221.84C158.81,-207.68 136.13,-187.49 118.85,-172.12"/>
<polygon fill="#64748b" stroke="#64748b" points="120.08,-169.93 113.22,-167.11 116.82,-173.59 120.08,-169.93"/>
</g>
<!-- corrected&#45;&gt;db -->
<g id="edge10" class="edge">
<title>corrected&#45;&gt;db</title>
<path fill="none" stroke="#64748b" d="M202.86,-221.87C219.74,-189.22 256.91,-117.33 280.06,-72.56"/>
<polygon fill="#64748b" stroke="#64748b" points="282.33,-73.5 283.37,-66.15 277.98,-71.25 282.33,-73.5"/>
<text text-anchor="middle" x="272" y="-146.5" font-family="Helvetica,sans-Serif" font-size="10.00">audit trail</text>
</g>
<!-- result&#45;&gt;db -->
<g id="edge13" class="edge">
<title>result&#45;&gt;db</title>
<path fill="none" stroke="#64748b" d="M124.5,-126.67C140.18,-116.05 159.79,-103.31 178,-93 194.48,-83.67 212.66,-74.37 229.84,-66.01"/>
<polygon fill="#64748b" stroke="#64748b" points="122.87,-124.81 118.47,-130.77 125.63,-128.86 122.87,-124.81"/>
<text text-anchor="middle" x="196.5" y="-96" font-family="Helvetica,sans-Serif" font-size="10.00">resolve</text>
</g>
</g>
</svg>
